<svg width="26" height="27" viewBox="0 0 26 27" fill="none" xmlns="http://www.w3.org/2000/svg">
<path d="M3.89527 24.1182C4.23964 24.1182 4.5699 23.9814 4.8134 23.7379C5.0569 23.4944 5.1937 23.1641 5.1937 22.8198V21.5213H6.49212C6.83649 21.5213 7.16675 21.3845 7.41025 21.141C7.65375 20.8975 7.79055 20.5673 7.79055 20.2229C7.79055 19.8785 7.65375 19.5483 7.41025 19.3048C7.16675 19.0613 6.83649 18.9245 6.49212 18.9245H5.1937V17.6261C5.1937 17.2817 5.0569 16.9514 4.8134 16.7079C4.5699 16.4644 4.23964 16.3276 3.89527 16.3276C3.55091 16.3276 3.22065 16.4644 2.97715 16.7079C2.73365 16.9514 2.59685 17.2817 2.59685 17.6261V18.9245H1.29842C0.954061 18.9245 0.623802 19.0613 0.3803 19.3048C0.136798 19.5483 0 19.8785 0 20.2229C0 20.5673 0.136798 20.8975 0.3803 21.141C0.623802 21.3845 0.954061 21.5213 1.29842 21.5213H2.59685V22.8198C2.59685 23.1641 2.73365 23.4944 2.97715 23.7379C3.22065 23.9814 3.55091 24.1182 3.89527 24.1182Z" fill="#FFFCFA"/>
<path d="M9.08907 20.2229C9.08427 19.1615 8.7544 18.127 8.14386 17.2588C7.53332 16.3906 6.67142 15.7303 5.67422 15.3668C6.55853 14.6759 7.58166 14.1843 8.67358 13.9255C7.61276 12.8249 6.89916 11.4365 6.62167 9.93332C6.34417 8.4301 6.51504 6.87846 7.11298 5.47165C7.71093 4.06483 8.70953 2.86501 9.98442 2.02161C11.2593 1.17822 12.7542 0.728516 14.2828 0.728516C15.8114 0.728516 17.3062 1.17822 18.5811 2.02161C19.856 2.86501 20.8546 4.06483 21.4526 5.47165C22.0505 6.87846 22.2214 8.4301 21.9439 9.93332C21.6664 11.4365 20.9528 12.8249 19.892 13.9255C21.6163 14.3144 23.1572 15.2781 24.2614 16.6585C25.3657 18.0388 25.9677 19.7536 25.9686 21.5213V22.8197C25.9696 22.9906 25.9368 23.16 25.8722 23.3182C25.8076 23.4764 25.7124 23.6203 25.592 23.7416C25.2804 24.0402 22.372 26.715 14.2828 26.715C11.2316 26.8213 8.19101 26.2999 5.34961 25.1828C6.42417 24.8694 7.36873 24.2173 8.04257 23.3235C8.71641 22.4297 9.08347 21.3422 9.08907 20.2229Z" fill="#FFFCFA"/>
</svg>
