<svg width="64" height="64" viewBox="0 0 64 64" fill="none" xmlns="http://www.w3.org/2000/svg">
<path fill-rule="evenodd" clip-rule="evenodd" d="M16 20C13.792 20 12 18.208 12 16C12 13.792 13.792 12 16 12C18.208 12 20 13.792 20 16C20 18.208 18.208 20 16 20ZM16 8C11.582 8 8 11.582 8 16C8 20.418 11.582 24 16 24C20.418 24 24 20.418 24 16C24 11.582 20.418 8 16 8ZM60 34.256L48 22L28.118 42.222L20 34L4 48.674V8C4 5.792 5.792 4 8 4H56C58.208 4 60 5.792 60 8V34.256ZM60 56C60 58.208 58.208 60 56 60H45.664L30.928 45.07L48 27.998L60 39.998V56ZM8 60C5.792 60 4 58.208 4 56V54.122L19.89 39.89L40.002 60H8ZM56 0H8C3.582 0 0 3.582 0 8V56C0 60.418 3.582 64 8 64H56C60.418 64 64 60.418 64 56V8C64 3.582 60.418 0 56 0Z" fill="#0C3057"/>
</svg>
