<svg width="26" height="27" viewBox="0 0 26 27" fill="none" xmlns="http://www.w3.org/2000/svg">
<path fill-rule="evenodd" clip-rule="evenodd" d="M15.0384 0.202987C14.5447 5.96046e-08 13.9187 0 12.6667 0C11.4147 0 10.7887 5.96046e-08 10.2949 0.202987C9.63653 0.47364 9.11345 0.992773 8.84074 1.64617C8.71625 1.94445 8.66753 2.29133 8.64846 2.79732C8.62045 3.54091 8.23621 4.22919 7.58689 4.60124C6.93757 4.97328 6.14485 4.95939 5.48198 4.61168C5.0309 4.37507 4.70385 4.24349 4.38132 4.20136C3.67478 4.10904 2.96024 4.29905 2.39488 4.7296C1.97085 5.05251 1.65785 5.59053 1.03186 6.66657C0.405877 7.74263 0.0928903 8.28064 0.0231303 8.80655C-0.0698964 9.50773 0.12157 10.2169 0.555397 10.778C0.75341 11.0341 1.03169 11.2493 1.4636 11.5187C2.09854 11.9147 2.50709 12.5892 2.50705 13.3333C2.50701 14.0775 2.09848 14.7519 1.4636 15.1477C1.03162 15.4172 0.75329 15.6325 0.555264 15.8887C0.121437 16.4497 -0.0700162 17.1588 0.0229971 17.86C0.0927571 18.3859 0.405757 18.924 1.03173 20C1.65772 21.076 1.97072 21.6141 2.39474 21.9369C2.9601 22.3675 3.67465 22.5575 4.38118 22.4652C4.7037 22.4231 5.03073 22.2915 5.48177 22.0549C6.14469 21.7072 6.93746 21.6933 7.58682 22.0653C8.23618 22.4375 8.62044 23.1257 8.64846 23.8695C8.66753 24.3753 8.71625 24.7223 8.84074 25.0205C9.11345 25.6739 9.63653 26.1931 10.2949 26.4637C10.7887 26.6667 11.4147 26.6667 12.6667 26.6667C13.9187 26.6667 14.5447 26.6667 15.0384 26.4637C15.6968 26.1931 16.2199 25.6739 16.4925 25.0205C16.6171 24.7223 16.6659 24.3753 16.6849 23.8693C16.7129 23.1257 17.0971 22.4375 17.7464 22.0653C18.3957 21.6932 19.1885 21.7072 19.8515 22.0549C20.3025 22.2915 20.6295 22.4229 20.952 22.4651C21.6585 22.5575 22.3731 22.3675 22.9384 21.9369C23.3625 21.614 23.6755 21.076 24.3015 19.9999C24.9275 18.9239 25.2404 18.3859 25.3103 17.86C25.4032 17.1588 25.2117 16.4496 24.778 15.8885C24.5799 15.6324 24.3016 15.4171 23.8696 15.1477C23.2348 14.7519 22.8263 14.0773 22.8263 13.3332C22.8263 12.5891 23.2348 11.9148 23.8696 11.5189C24.3017 11.2495 24.58 11.0343 24.7781 10.778C25.2119 10.217 25.4033 9.50783 25.3104 8.80663C25.2405 8.28073 24.9276 7.74271 24.3016 6.66667C23.6756 5.59063 23.3627 5.0526 22.9385 4.72969C22.3732 4.29915 21.6587 4.10913 20.9521 4.20145C20.6296 4.24359 20.3025 4.37515 19.8516 4.61173C19.1887 4.95945 18.3959 4.97336 17.7465 4.60128C17.0972 4.22921 16.7129 3.54088 16.6848 2.79725C16.6657 2.29131 16.6171 1.94444 16.4925 1.64617C16.2199 0.992773 15.6968 0.47364 15.0384 0.202987ZM12.6667 17.3333C14.8927 17.3333 16.6971 15.5425 16.6971 13.3333C16.6971 11.1241 14.8927 9.33333 12.6667 9.33333C10.4407 9.33333 8.63621 11.1241 8.63621 13.3333C8.63621 15.5425 10.4407 17.3333 12.6667 17.3333Z" fill="#FFFCFA"/>
</svg>
